<svg width="90" height="64" viewBox="0 0 90 64" fill="none" xmlns="http://www.w3.org/2000/svg">
<path d="M13.0042 50.6262C11.3741 51.5747 10.2181 52.3898 9.53639 53.0715C8.88431 53.7532 8.57309 54.3163 8.60273 54.7609C8.66201 55.1759 9.00287 55.4871 9.62531 55.6946C10.2774 55.8724 11.0925 55.9614 12.0706 55.9614H28.0316V61.4744H12.0706C10.144 61.4744 8.57309 61.2372 7.35786 60.763C6.17227 60.2591 5.23862 59.6515 4.5569 58.9402C3.90482 58.1992 3.46023 57.4285 3.22311 56.6282C2.98599 55.7983 2.86743 55.0573 2.86743 54.4053C2.86743 53.3975 3.06009 52.4935 3.44541 51.6932C3.83073 50.8929 4.31978 50.1816 4.91258 49.5592C5.53501 48.9367 6.20191 48.3884 6.91326 47.9141C7.62462 47.4103 8.29152 46.9657 8.91395 46.5804L17.5836 41.8232C19.0359 41.0229 20.2364 40.2671 21.1848 39.5557C22.1333 38.8147 22.7409 38.1775 23.0077 37.644C23.2744 37.0808 23.1411 36.6362 22.6075 36.3102C22.1037 35.9841 21.1255 35.8211 19.6732 35.8211H4.20122V30.3081H19.6732C21.6294 30.3081 23.2003 30.56 24.3859 31.0639C25.6012 31.5382 26.5348 32.1458 27.1869 32.8868C27.8686 33.5981 28.328 34.3688 28.5651 35.1987C28.8023 35.9989 28.9208 36.7103 28.9208 37.3327C28.9208 38.3998 28.6985 39.3631 28.2539 40.2226C27.8093 41.0525 27.261 41.7935 26.6089 42.4456C25.9568 43.0977 25.2455 43.6757 24.4748 44.1795C23.7339 44.6538 23.0373 45.0835 22.3852 45.4689L13.0042 50.6262Z" fill="#00DC7D"/>
<path fill-rule="evenodd" clip-rule="evenodd" d="M4.55763 58.9397C3.90555 58.1987 3.46095 57.428 3.22384 56.6278C2.98672 55.7978 2.86816 55.0568 2.86816 54.4048C2.86816 53.397 3.06082 52.493 3.44613 51.6927C3.83145 50.8925 4.32051 50.1811 4.9133 49.5587C5.53574 48.9362 6.20264 48.3879 6.91399 47.9137C7.62535 47.4098 8.29224 46.9652 8.91468 46.5799L17.5843 41.8227C19.0367 41.0224 20.2371 40.2666 21.1856 39.5552C22.134 38.8142 22.7416 38.177 23.0084 37.6435C23.2752 37.0803 23.1418 36.6357 22.6083 36.3097C22.1044 35.9836 21.1263 35.8206 19.6739 35.8206H4.20195V30.3076H19.6739C21.6302 30.3076 23.2011 30.5595 24.3867 31.0634C25.6019 31.5377 26.5355 32.1453 27.1876 32.8863C27.8693 33.5976 28.3287 34.3683 28.5659 35.1982C28.803 35.9985 28.9215 36.7098 28.9215 37.3322C28.9215 38.3993 28.6992 39.3626 28.2546 40.2221C27.81 41.052 27.2617 41.793 26.6096 42.4451C25.9576 43.0972 25.2462 43.6752 24.4756 44.179C23.7346 44.6533 23.038 45.0831 22.386 45.4684L13.005 50.6257C11.3748 51.5742 10.2188 52.3893 9.53711 53.071C8.88504 53.7527 8.57382 54.3159 8.60346 54.7604C8.66274 55.1754 9.0036 55.4866 9.62603 55.6941C10.2781 55.8719 11.0932 55.9609 12.0713 55.9609H28.0324V61.4739H12.0713C10.1447 61.4739 8.57382 61.2367 7.35859 60.7625C6.173 60.2586 5.23934 59.651 4.55763 58.9397ZM12.9177 53.5295H30.4637V63.9053H12.0713C9.97326 63.9053 8.07221 63.651 6.47467 63.0275L6.44092 63.0144L6.40757 63.0002C5.00781 62.4053 3.7701 61.6319 2.80219 60.622L2.76646 60.5847L2.73235 60.5459C1.88929 59.5879 1.24661 58.5132 0.892623 57.3185L0.889254 57.3071L0.885996 57.2957C0.605575 56.3142 0.436768 55.3422 0.436768 54.4048C0.436768 53.0812 0.691597 51.809 1.25545 50.638C1.74708 49.6169 2.37915 48.694 3.15264 47.8818L3.17309 47.8604L3.19405 47.8394C3.91786 47.1156 4.6985 46.4714 5.53579 45.9103C6.27076 45.3904 6.97081 44.9236 7.63491 44.5125L7.68913 44.479L16.4109 39.6932C16.4116 39.6928 16.4123 39.6924 16.4129 39.6921C17.3413 39.1805 18.1392 38.7002 18.814 38.252H1.77056V27.8762H19.6739C21.7888 27.8762 23.7092 28.1416 25.3033 28.8112C26.7377 29.3753 28.0114 30.1581 28.9777 31.2403C29.8738 32.1853 30.5436 33.2779 30.9003 34.5182C31.1809 35.468 31.3529 36.4153 31.3529 37.3322C31.3529 38.7474 31.0552 40.1 30.4143 41.3392L30.4062 41.3548L30.3979 41.3703C29.8431 42.4059 29.1531 43.3402 28.3289 44.1644C27.5587 44.9346 26.7171 45.6184 25.8061 46.214L25.7962 46.2205L25.7862 46.2269C25.0247 46.7143 24.3034 47.1595 23.6229 47.5616L23.5904 47.5808L14.2026 52.7419C13.7134 53.027 13.2868 53.2895 12.9177 53.5295ZM10.3455 53.3688C10.3455 53.3688 10.3451 53.3686 10.3455 53.3688Z" fill="#00DC7D"/>
<path d="M88.0764 53.3943L88.0777 53.3902C88.7837 51.1036 89.129 48.3297 89.129 45.0825V4V3.4095H88.5385H78.7612H78.1707V4V45.0825H78.1706L78.1708 45.095C78.2234 47.5824 78.1149 49.2832 77.8729 50.251L77.8703 50.2615L77.868 50.2722C77.7697 50.7378 77.651 51.0379 77.5368 51.2136C77.4631 51.3269 77.4086 51.3647 77.3783 51.3776C77.2986 51.3668 77.1721 51.3242 76.9912 51.1973C76.7788 51.0482 76.5267 50.8073 76.2366 50.4532C75.675 49.6458 75.0594 48.674 74.3896 47.5356C73.7666 46.3329 73.1432 45.0754 72.5196 43.7628C71.943 42.3837 71.4185 41.1416 70.9462 40.0367L70.9463 40.0366L70.941 40.025L62.742 21.9349C62.7418 21.9344 62.7416 21.934 62.7414 21.9335C61.0572 18.1665 59.5521 15.1077 58.2264 12.7627C56.9516 10.3595 55.662 8.45813 54.3519 7.07907C53.0396 5.69785 51.6228 4.72477 50.098 4.18976C48.6005 3.66436 46.8492 3.4095 44.8561 3.4095C43.7875 3.4095 42.644 3.75139 41.437 4.3852C40.1775 4.99033 39.0341 6.00157 37.9974 7.37984L37.9929 7.38592L37.9885 7.39211C36.9941 8.78756 36.1561 10.6209 35.4614 12.8702C34.7544 15.1039 34.4095 17.8514 34.4095 21.097V62.2625V62.853H35H44.7773H45.3678V62.2625V21.097H45.3679L45.3677 21.0853C45.3153 18.4379 45.4234 16.6937 45.66 15.7837C45.8074 15.3222 45.9524 15.0605 46.0659 14.9331C46.0918 14.904 46.1123 14.8863 46.1262 14.8761C46.1298 14.8734 46.1329 14.8713 46.1355 14.8696C46.1376 14.8683 46.1394 14.8672 46.1409 14.8664L46.1409 14.8665L46.1538 14.8692C46.2775 14.8953 46.4616 14.9832 46.7061 15.2055C46.948 15.4254 47.2201 15.7505 47.5197 16.1972L47.5258 16.2064L47.5324 16.2154C48.1896 17.12 48.8289 18.2212 49.4479 19.5244L49.4542 19.5376L49.4611 19.5504C50.1351 20.8056 50.7577 22.1163 51.3289 23.4826L51.3288 23.4826L51.3323 23.4906C51.9109 24.8194 52.4123 25.9307 52.8361 26.823L60.7176 44.2446C60.7178 44.2449 60.7179 44.2452 60.7181 44.2455C62.4029 48.014 63.8806 51.0976 65.1506 53.4927L65.1505 53.4927L65.1554 53.5015C66.4833 55.9057 67.7992 57.8061 69.1078 59.1834C70.42 60.5646 71.8368 61.5377 73.3617 62.0727C74.8591 62.5981 76.6105 62.853 78.6035 62.853C79.6634 62.853 80.8031 62.5438 82.0123 61.9652L82.0225 61.9603L82.0325 61.9551C83.2841 61.2963 84.4248 60.262 85.4622 58.8826L85.4623 58.8827L85.469 58.8734C86.5144 57.4256 87.3799 55.5937 88.0764 53.3943Z" fill="#00DC7D" stroke="#00DC7D" stroke-width="1.181"/>
<path d="M14.3735 20.7019L7.72545 9.18719C7.0436 8.0062 7.89591 6.52995 9.2596 6.52995L22.5556 6.52995C23.9193 6.52995 24.7717 8.0062 24.0898 9.18719L17.4418 20.7019C16.7599 21.8829 15.0553 21.8829 14.3735 20.7019Z" fill="#00DC7D" stroke="#00DC7D" stroke-width="0.393665"/>
<rect x="45.394" y="53.7767" width="10.0266" height="21.1415" transform="rotate(90 45.394 53.7767)" fill="#00DC7D" stroke="#00DC7D" stroke-width="0.393665"/>
</svg>
